<?xml version="1.0" encoding="UTF-8" standalone="no"?>
<!DOCTYPE svg PUBLIC "-//W3C//DTD SVG 1.1//EN" "http://www.w3.org/Graphics/SVG/1.1/DTD/svg11.dtd">
<svg width="100%" height="100%" viewBox="0 0 16 16" version="1.1" xmlns="http://www.w3.org/2000/svg" xmlns:xlink="http://www.w3.org/1999/xlink" xml:space="preserve" xmlns:serif="http://www.serif.com/" style="fill-rule:evenodd;clip-rule:evenodd;stroke-linecap:round;stroke-linejoin:round;">
    <g transform="matrix(1.046609,0,0,2.109299,0.400389,-8.874389)">
        <path d="M6.6,6.6L9.4,9.4M9.4,6.6L6.6,9.4" style="fill:none;fill-rule:nonzero;stroke:rgb(162,155,254);stroke-width:0.9px;"/>
    </g>
    <g transform="matrix(1.363783,0,0,1.363783,-2.930759,-2.910265)">
        <path d="M4,6.5C4.634,4.706 6.34,3.5 8.243,3.5C10.711,3.5 12.743,5.531 12.743,8C12.743,10.469 10.711,12.5 8.243,12.5C6.34,12.5 4.634,11.294 4,9.5" style="fill:none;fill-rule:nonzero;stroke:rgb(162,155,254);stroke-width:1.5px;"/>
    </g>
    <g transform="matrix(0.792842,0.704429,-0.90582,1.019509,4.401794,-3.578364)">
        <path d="M2,4.5L4.2,6.7L6.4,4.5" style="fill:none;fill-rule:nonzero;stroke:rgb(162,155,254);stroke-width:1.5px;"/>
    </g>
</svg>
